<?xml version="1.0" encoding="UTF-8"?>
<svg version="1.1" viewBox="0 0 2048 2048" width="3264" height="3264" xmlns="http://www.w3.org/2000/svg">
<path transform="translate(1022,331)" d="m0 0 6 1 24 16 17 10 22 12 19 9 28 11 21 7 27 7 21 4 24 3 17 1h40l28-2 22-3 25-5 24-7 19-7 16-7 23-13 11-8 13-10 13-12 5-4 4 2 10 9 11 9 15 14 8 7 10 9 8 7 10 9 11 9 14 13 8 7 10 9 11 9 7 7 11 9 15 14 8 7 10 9 11 9 14 13 8 7 10 9 8 7 12 11 4 3-2 4-15 14-8 7-17 17-9 11-10 12-12 17-12 20-12 23-8 19-7 19-7 26-5 24-4 28-2 28v34l2 19 5 28 8 30 8 26 13 35 12 29 19 43 16 40 10 28 8 25 7 27 5 27 2 19v30l-3 32-4 23-7 27-7 21-9 21-8 16-9 17-18 27-10 13-11 13-7 8-9 10-19 19-8 7-13 11-19 14-15 10-19 11-21 11-26 11-30 10-23 6-29 4-121 15-50 7-35 7-30 8-36 12-24 10-20 10-21 13-14 11-10 9-8 7-4 1-10-9-11-9-13-10-18-11-23-12-16-7-21-8-37-11-30-7-28-5-52-7-136-17-28-7-27-9-26-11-20-10-22-13-19-13-13-10-13-11-12-11-13-12-7-8-12-13-11-14-10-13-14-21-12-21-13-27-9-24-7-24-5-23-4-29-1-14v-32l3-25 6-28 9-32 10-30 11-28 13-31 19-43 15-39 12-35 8-29 6-28 3-27v-34l-3-36-5-30-7-28-9-27-11-25-12-23-12-19-14-19-12-14-9-10-21-21-8-7-9-8 6-7 11-10 8-7 10-9 8-7 10-9 11-9 15-14 8-7 10-9 8-7 10-9 8-7 14-12 13-12 11-9 7-7 11-9 15-14 8-7 10-9 8-7 10-9 11-9 5-5 5 2 17 14 20 14 17 10 16 8 18 8 30 10 27 6 27 4 27 2h41l27-2 28-4 27-6 27-8 28-11 16-8 19-10 19-12 18-13z" fill="#FCFCFC"/>
<path transform="translate(1022,331)" d="m0 0 6 1 24 16 17 10 22 12 19 9 28 11 21 7 27 7 21 4 24 3 17 1h40l28-2 22-3 25-5 24-7 19-7 16-7 23-13 11-8 13-10 13-12 5-4 4 2 10 9 11 9 15 14 8 7 10 9 8 7 10 9 11 9 14 13 8 7 10 9 11 9 7 7 11 9 15 14 8 7 10 9 11 9 14 13 8 7 10 9 8 7 12 11 4 3-2 4-15 14-8 7-17 17-9 11-10 12-12 17-12 20-12 23-8 19-7 19-7 26-5 24-4 28-2 28v34l2 19 5 28 8 30 8 26 13 35 12 29 19 43 16 40 10 28 8 25 7 27 5 27 2 19v30l-3 32-4 23-7 27-7 21-9 21-8 16-9 17-18 27-10 13-11 13-7 8-9 10-19 19-8 7-13 11-19 14-15 10-19 11-21 11-26 11-30 10-23 6-29 4-121 15-50 7-35 7-30 8-36 12-24 10-20 10-21 13-14 11-10 9-8 7-4 1-10-9-11-9-13-10-18-11-23-12-16-7-21-8-37-11-30-7-28-5-52-7-136-17-28-7-27-9-26-11-20-10-22-13-19-13-13-10-13-11-12-11-13-12-7-8-12-13-11-14-10-13-14-21-12-21-13-27-9-24-7-24-5-23-4-29-1-14v-32l3-25 6-28 9-32 10-30 11-28 13-31 19-43 15-39 12-35 8-29 6-28 3-27v-34l-3-36-5-30-7-28-9-27-11-25-12-23-12-19-14-19-12-14-9-10-21-21-8-7-9-8 6-7 11-10 8-7 10-9 8-7 10-9 11-9 15-14 8-7 10-9 8-7 10-9 8-7 14-12 13-12 11-9 7-7 11-9 15-14 8-7 10-9 8-7 10-9 11-9 5-5 5 2 17 14 20 14 17 10 16 8 18 8 30 10 27 6 27 4 27 2h41l27-2 28-4 27-6 27-8 28-11 16-8 19-10 19-12 18-13zm-538 425 5 33 2 20 1 18v29l-2 26-5 32-8 34-9 30-13 35-13 30-16 34-12 25-12 29-9 25-7 23-5 21-3 19-1 10v33l2 22 5 27 8 27 8 20 12 25 10 17 11 16 12 16 11 13 11 12 21 21 11 9 15 12 23 15 22 12 23 10 27 9 26 6 69 10 81 11 66 9 36 7 30 8 26 9 24 10 19 10 17 10 17 12 3 2 4-1 17-12 20-12 22-11 25-10 21-7 26-7 29-6 54-8 172-24 35-7 28-8 24-10 15-9 12-9 11-9 20-18 20-20 7-8 10-11 9-11 12-16 10-15 11-19 8-16 9-21 8-25 5-21 3-20 2-28-1-25-2-17-5-25-7-25-9-26-11-27-13-28-15-31-13-30-12-31-10-31-8-30-6-31-3-26-1-17v-17l2-34 4-29 2-14z" fill="#020303"/>
<path transform="translate(1023,389)" d="m0 0 5 2 15 9 16 9 16 8 26 12 24 9 34 10 34 7 29 4 26 2 1 1v244l-1 1h-449v-245l1-1 36-3 32-5 30-7 26-8 24-9 24-11 20-10 27-16z" fill="#FDFDFD"/>
<path transform="translate(1485,396)" d="m0 0 4 2 12 11 8 7 20 18 8 7 10 9 8 7 10 9 8 7 11 10 8 7 3 2v2l4 2 14 13 8 7 10 9 8 7 10 9 8 7 7 6-2 4-9 11-16 21-15 23-11 19-13 25-11 26-8 23-1 1h-303v-245l5-1 31-2 28-4 29-6 24-7 20-7 25-11 25-13 19-12z" fill="#FDFDFD"/>
<path transform="translate(1238,1393)" d="m0 0 3 1v91h102l2 1-1 3-19 14-12 8-16 10-16 9-22 12-26 12-33 13-28 9-21 6-27 6-37 6-27 3-16 1h-66l-25-2-31-4-33-6-32-8-35-11-30-12-20-9-24-12-24-14-15-9-10-7-16-12-10-8-3-4 111-1 1-1 1-84 4 1 17 12 19 11 23 12 23 10 36 12 24 6 31 5 18 2 20 1h26l30-2 28-4 29-6 28-9 17-6 20-9 16-8 15-8 19-12z" fill="#FDFDFD"/>
<path transform="translate(561,396)" d="m0 0 5 2 17 11 22 12 19 9 21 8 21 7 32 8 32 5 22 2 18 1 2 1v245h-125l2-4 8-11 5-4 1-7 2-1 2 1-1-7-1-2v-9l4 2 6 5 1-9 5 5 3 5v2h2l-4-20 10-7 5-9 6-15-2-1 6-7h-3l-1-2-15 5 3-3 9-4 9-2v-7l-11 3 3-3 7-3h5l1-4 4 2-4-5-1-3-13 8-9 8-2-1 7-7 10-7 3-1v-4h4l-2-4v-5l6 2-9-11-8-9 3-1 7 1-11-9v-3l5 3-1-6-2-5-4-2-3-9v-34l-3-10-3-4-7-1-9 6-8 7h-8l-9-5v3l-5-1-11-5-15-5 1 4-19-4v2l-33-1 2 5-9 3-7-9-5-1-5-3h-3l-10-6-12-4h-12l-8 3-4 6-2 7v17l4 16 10 15-6 4-7 8-4 9 5-3h2v5l5-2-2 5-6 10-11 21 4-2h3l-2 6-1 2h2l-3 9-2 7h3l-1 5-1 3h8l8 3v2l-9 2-1 2 10 2 6 2-4 4 2 1-1 4-5 8 11-1-1 6-4 11-2 12 11-7 8-3 13-1 17 3 2 7 3-7 2 4h2l2-4h7l10 4 6 7 2 5v6l3-1 4-6 4 4 6 14v4l7-5 9-3h17l11 2v12h-174l-8-20-9-21-11-23-13-23-11-17-14-20-11-14-11-13 1-3 8-7 10-9 8-7 12-11 8-7 10-9 8-7 10-9 8-7 20-18 8-7 10-9 8-7 12-11 8-7 10-9 8-7z" fill="#FCFCFC"/>
<path transform="translate(886,487)" d="m0 0h283v169l-1 1h-282z" fill="#00694D"/>
<path transform="translate(1202,784)" d="m0 0 6 1 9 7 9 9 8 14 3 11v18l-1 7 23 13 5 3-5-17v-16l4-14 3-2 8 6 9 10 7 14 2 7v20l-2 9 17 13 7 6h2l-1-15 3-14 7-14 4-1 8 9 6 12 3 13v11l-3 13-3 9 8 8 7 8 8 9h1l3-17 8-16 10-11 4-1 5 9 3 13v11l-4 16-6 10-6 8 5 9 10 15 8 14 2 1 2-8 8-16 8-9 11-8 4-2 4 1 1 4v19l-4 13-6 10-9 10-9 7 3 9 9 24 1 3 2 1 2-6 6-9 8-9 10-7 15-7 3 1v13l-5 15-7 11-10 10-13 8-4 1 2 12 4 25v3l5-5 7-8 9-8 16-8 6-2h5v8l-4 13-7 12-11 11-11 7-12 6-1 30-1 8 11-9 10-7 14-6 16-3 1 1-1 8-6 12-9 11-12 9-13 6-13 4-2 6-7 30 14-10 12-6 14-4 8-1h10l1 4-9 14-8 8-11 7-13 6-13 3-13 2-10 24-4 8v3l12-7 15-5 12-2h13l5 1-1 5-11 13-13 9-11 5-16 4-19 1-8 11-7 11 15-7 17-4h23l2 1-2 5-7 8-7 7-14 8-16 5-6 1-25 1-14 15-1 2 18-6 15-2 17 1 5 2-4 7-10 9-14 8-16 5-5 1h-23l-9-1-17 14-11 8h-3v-13l10-8 11-9-1-5-6-10-4-10-1-5v-16l4-14 3-5 5 1 9 9 6 10 4 13 1 12 6-4 11-12 3-4-1-5-6-7-7-14-2-8v-18l4-13 3-2 6 4 8 8 7 11 5 16v4l3-1 13-20-2-4-9-10-8-16-2-10v-11l2-10 3-6 5 1 10 9 8 11 5 12 2 6 3-3 11-26-1-4-13-12-8-13-4-12v-21l2-5 5 1 9 6 10 10 7 11 2 5 2 1 4-21-1-4-13-8-10-9-7-9-6-13-2-9v-12l5-1 12 6 9 7 3 2v2h2l9 13 3 3 1-14v-18l-1-2-17-7-14-10-10-12-6-13-2-8v-5l4-1 15 5 12 7 12 11 5 5-4-24-2-11-16-4-15-8-11-9-9-12-5-12-1-6 1-1 11 1 13 5 11 6 9 7 2 1-9-22-3-3-19-3-15-6-13-9-9-9-7-12 1-5h8l16 3 15 6 9 5-8-14-8-12h-22l-14-2-12-4-12-6-13-11-4-5v-3l9-2h19l14 3 13 5h2l-7-8-9-10-3-3-7 1-11 3-7 1h-18l-15-3-16-7-9-7v-3l15-5 14-2h9l14 2 13 4-4-5-20-16-6-4-6 1-11 5-12 3-9 1h-10l-14-2-15-5-7-4 1-3 16-8 17-4h26l-15-9-16-9-6 1-12 6-16 4-7 1h-11l-17-3-11-4 2-4 10-7 11-5-21-5-16-7-11-7-10-9-9-10-2-3v-3l14-4 12-2h20l20 4 13 5 14 8 6 4-2-11v-18z" fill="#071A0E"/>
<path transform="translate(823,781)" d="m0 0 4 1 2 6v19l-1 5 16-10 15-6 19-4h25l14 3 1 3-7 11-8 10-14 11-10 6-16 6-9 2 2 2 10 4 12 8 2 4-10 4-15 3h-17l-18-4-13-6-6 1-22 12-3 2 18 1 17 4 18 9-1 3-13 6-11 3-9 1h-14l-16-3-16-6-17 12-9 8-1 2 11-3h26l15 4 6 3-2 4-11 7-12 5-13 3h-23l-16-4-4 1-13 13-3 4 11-3 14-3h17l10 2-1 4-7 8-12 9-11 5-9 3-10 2h-25l-2 4-10 16-2 4 15-7 15-4 14-1 1 5-7 12-12 12-14 8-10 4-20 4-7 16-2 6 10-7 14-7 9-3 10-1 1 3-4 12-6 10-9 10-13 9-11 5-12 4-5 23-2 10 5-4 5-6 13-9 11-5 6-2h7l-1 10-5 13-8 11-7 7-14 9-13 5-1 1v34h2l2-6 8-10 10-9 10-6 7-3 4 1v12l-3 12-6 12-9 11-12 9-9 5 3 17 1 8 2-1 7-14 12-13 11-7h3l2 6v20l-4 12-5 9-7 9-10 8 1 6 8 20 4 8 2-4 6-16 7-9 10-10 3-2 4 1 4 16v10l-4 16-7 12-8 9h-2l1 6 12 19 3 2 1-11 4-11 6-10 12-12 5-1 4 10 1 5v17l-4 13-6 11-7 8 1 4 18 20 2 1v-11l5-16 6-10 8-9 3-2h3l5 12 2 9v13l-3 12-6 12-4 5-1 4 4 2 13 11v12l-4-1-10-8-11-9-11 1h-18l-12-2-16-6-11-7-9-8-4-7 4-2 7-1h14l13 2 14 5h3l-12-13-4-4h-22l-15-3-12-5-10-6-10-9-6-7-1-4 1-1 8-1h10l17 3 15 6 5 3h2l-13-20-1-2-18-1-15-3-13-5-12-8-10-10-5-7v-3l2-1h18l15 3 12 5 12 7-1-4-9-20-5-13-18-2-16-5-14-8-10-9-7-10-3-6v-3h16l15 4 10 4 13 9 7 6-8-37-8-3-12-4-13-7-12-11-6-8-5-10-2-8 1-1 11 1 15 5 11 6 12 11 4 4-1-40-15-7-13-9-7-7-6-9-5-13-1-5v-8l10 2 16 8 9 7 8 9 5 8v2h2l1-12 6-31-6-2-10-6-9-7-8-10-7-14-2-8v-13l7 1 12 6 9 7 8 8 7 11 3 8 2 1 3-11 8-21 3-9-5-2-12-11-7-9-5-11-2-7v-20l2-5 5 1 11 8 9 9 8 14 3 10 1 7 3-4 12-20 11-16-1-4-8-10-7-14-2-11v-11l3-12 5-10 5 2 9 10 8 16 2 10 1 14 9-10 7-8 9-9 1-3-6-14-2-9v-14l5-16 7-11 4-5h4l5 8 4 11 1 5v17l-1 10 13-11 15-11-1-6-2-7v-19l4-13 6-10 11-12 4-3 3 1 4 11 1 5v14l-3 12-6 12 10-5 14-8 9-5-2-10v-19l4-13 5-9 8-10z" fill="#07190E"/>
<path transform="translate(504,462)" d="m0 0h12l14 5 10 6 2-1 5 4 5 1 6 8 9-2-2-5h27l6 1v-2l10 1 9 3-1-4 10 2 16 7 5 2v-3l6 2 3 2h8l8-7 9-6 7 1 4 5 3 10v34l3 9 5 5 2 5-1 4-5-3 5 5 7 6-3 1-7-1 9 10 7 8v2l-5-1 1 8-3 1-1 4-9 5-10 9 16-12 7-4 3 1h-2l3 5 1 3-4-1-1 3-10 3-1 1 5-2 4 1h-2v7l-16 6-3 2 10-4 6-1-2 1v2h3l-2 4-3 3 1 3-6 16-6 8-8 5 3 17v3h-2l-6-10-1-1-2 8-4-2-6-5 1 9 2 5v5l-4-1-1 7-7 6-6 9-3 3h-2l1-11h-7l-4-1h-17l-11 4-3 3h-2l-5-14-4-7-4 5-4 1-2-9-4-6-3-3-9-3h-7l-2 3h-2l-2-3-2 7-2-1-1-6-17-3-13 1-10 4-9 6-1-3 4-16 4-11-12 2 5-9 2-4-3-1 3-4-14-4 1-3 2-1h7v-2l-16-3 1-5 1-3h-3l1-7 4-9h-2l2-6 1-2-7 2 2-6 13-24 4-6-6 3 1-6-5 3h-2l1-5 6-9 6-6 3-2-7-9-4-8-3-13v-17l4-11 5-4z" fill="#020A08"/>
<path transform="translate(1238,1393)" d="m0 0 3 1v91h102l2 1-1 3-19 14-12 8-16 10-16 9-22 12-26 12-33 13-28 9-21 6-27 6-37 6-27 3-16 1h-66l-25-2-31-4-33-6-32-8-35-11-30-12-20-9-24-12-24-14-15-9-10-7-16-12-10-8-3-4 111-1 1-1 1-84 4 1 17 12 19 11 23 12 23 10 36 12 24 6 31 5 18 2 20 1h26l30-2 28-4 29-6 28-9 17-6 20-9 16-8 15-8 19-12zm-27 37-23 13-24 11-24 9-26 8-27 6-27 4-25 2h-46l-34-3-24-4-32-8-30-10-25-11-25-13-6-3-1 1v61h-98v3l10 7 15 9 22 12 21 10 29 12 40 13 31 8 30 6 31 4 35 3 40 1 43-2 37-4 29-5 27-6 31-9 30-10 26-11 29-14 20-11 14-9v-2l-91-1v-66z" fill="#071B0F"/>
<path transform="translate(507,472)" d="m0 0h7l20 9 17 9 14 11 5 5h10l4 1-5-9v-3l7-3 5-1h10l2 1-1-3 8 1 13 5 6 3 1-5 7 1 13 6 3 3-10 2-6 3-5-1-10-5-7-2h-10l-10 4-5 4h-2l-2 4-2 3 9-3 16-3 16 2 7 3v1h-11l-9 2-2 7 11-2 12 2 8 4 3 2 10-5h7l4 1-3-5-4-3h-8l-5 3-2 3h-2l-1-2v-6l8-3h12l16 8 7 7 4 7v11l4 2 2 9v14l-3 9-2-3-5 4 1 3-2 4-6-10v-2l8-5 3-5 2 1v-12l-3-5-3-2 1-10h-2v5h-2v6h1 2l-2 4-5 4h-2l-2 4-4 6-5 3 4 5-5 1 9 3 2 5-11 1v2h10l5 5 1 6v8l-11 4h-12l-11 3-6-1-12-9-5-3v15l10 4 10 5 1 1h10l7-1 1 4-21 4-6 2h-8l-4-5-5-11-5-5-4-2-8-2-10-6-12-4-7-2-4-9v-2l12 3 16 8 9 6 8 6-5-7-10-7-15-7-19-6-4-5-10-3-4-5-2-6 2-1 2 4 20 4h4l-14-6-4-5-2-5 1-4 3-5h-2l2-9-6 5 2 3-12 12 1 3-6 7-1 3h4l-1 5 13 4 8 6 4 5 1 6-2 1-7-2-13-8-8-4v-2l-8-1-2-1 4 10 8 9 9 7 8 8 3 7 2 9 1 15 3 5v2h-12l-16-3h-11l2-4 6-3h9l-4-6-10-6-9-5 4-3-6-8-5-4-4-2-8-1 1-7 7-20v-3l-4 2 1-6-4 2 4-12 6-11 11-15-9 2 2-4 10-6 16-5 13-3h18v-2l-7-2h-16l-5 1h-18l-10-6-10-9-3-7v-7l4-11z" fill="#FCFCFC"/>
<path transform="translate(1010,515)" d="m0 0 17 1 13 5 10 7 7 6 9 14 4 12 1 6v12l-4 16-7 12-9 10-11 7-13 5-5 1h-17l-14-4-12-7-7-6-8-11-5-11-3-15 1-13 4-13 7-12 11-11 11-6 11-4z" fill="#F42A41"/>
<path transform="translate(805,985)" d="m0 0h7l5 3 9 6 2 6 8 6 8 4 10 7 9 6 10 14 7 7 12 6 10 7 11 5 6 2 1 3 7 1h8l11-2h3v-7l-2-7 4-6-7-14-4-15-4-6-3-7v-3l5 2v-8l-1-4 4 2 3 4 2 15 6 11 7 11 6 15 3 5 5 2 2-1 3-5 8-5 10 1 8 4 2 2v9l-4 6-5 4-5 7 1 6v4l-4 3v8l1 2v9 3l6-10-1-8v-8l4 1v4l3-1 2-9 1-5h3l1 6v11l-5 12-10 23-8 10-7 1-5-5-4-13-9-12-7-3-24-1h-36l-16 5-23-4-1-2 1-2-11-3-10-4-1-1v-7l3-5 5-2 24-1 2 2v3l19-1v-2l-15-5-2-2 1-18-7-8-5-6v-2l-4-2-11-7-6-9-6-7v-2l-15-6-4-5-3-3-4-2-3-6 1-5z" fill="#07160C"/>
<path transform="translate(1100,981)" d="m0 0 6 1 13 9 13 11 10 10 1 3 11 1 5 3 5 5 16 6 9 3v-2l5 1 2-5v-3-1l13-4 9 1 6 5-1 5-3 3-2 4-6 2-1 2 6 4 1 1v5l-10 7-11 8-8 7-9 3-1 7-13 13-5 6h-2l3 4-2 10-6 16-3 6-2 1-1 8-4 3-10-1-2-1 3-12h-2l1-8 1-9v-11l2-2 2-13-13 6-1 22 4 6-1 3h-2l1 5-2 4-1 4-4 3h-9l-1-6v-9l-4-2-3-15-1-15v-17l2-2 10-1 4-4 7-4 8-6 4-2 8-1 2-4 11-10 5-3 1-2h-6l-4-4-1-2-8-1-3-4-2-6-5-5v-3l-14-11-15-13-9-8 2-4z" fill="#07160C"/>
<path transform="translate(853,1213)" d="m0 0 8 1-1 3 2 2-4 5-6 3-8 11-2 3h9l15 1h9v-2l-5-1-6-5 1-5 5-3 4-1h12l7 3 5 1 4 7-3 2h9l5-1 20-1h65l13-1 4 3v4l-5-1-1-2-30 4-33 1-16 2 2 4 7 9 3 3 9 4 1 2-10 4h-3l3 8v10l-3 10-5 7-10 3-27 7-3 3-1 2-10 5-3 4h-6l-3-3-1-4 2-3 1-7-30 2-9 3-9 2-9 5-6-1-2-2 1-6 6-4h2l2-4 5-3 9 1 2 1h9l25-5h9l5 1 2-12 1-5v-8l-1-1v-7l-3-5-13-8-13-4-18-4-5-3-7-4 1-5 8-9 7-5 3-8 3-2z" fill="#020605"/>
<path transform="translate(1362,528)" d="m0 0 5 2 23 12 24 8 16 5 11 6 8 9 7 14 3 11 1 1 5-16 6-11 6-7 10-6 42-14 16-8 10-6h2l-1 12-6 16-7 12-10 11-13 9-12 6-13 4-12 2h-47l-16-3-13-5-11-6-9-7-9-9-9-14-5-14z" fill="#020504"/>
<path transform="translate(1119,1158)" d="m0 0h9l4 4 1 7-1 11-1 4 3 3 2 9-2 13 8 2 10 1 2-5h2v2l5-1 3 3-1 4-8 2-11 1h-11l-2 10 12 5 11 2 5 1 11-2-5 4-11 6-10 2-1-1v-5l-9-1-1 3 1 3 5 2 7 6 7 8 7 11v6l-7 8-11 10-7 6-1 7 4 6 2 1-1 5-10-1-10-4-4-4 1-5 3-4 5-3 6-8 6-9 5-5h2l-1-4-6-4-4 1-5 2-8-7-4-3-11 12-9 11-5 7-7 4-17 9-11 8 3 5 3 2-1 4h-10l-11-8-2-2 1-4 6-5 7-3 12-11 8-4 8-3 3-5 2-9 4-11 2-9 3-15 2-6 1-11 5-17 4-10 7-6 3-3-1-5-1-1v-14l3-4z" fill="#020605"/>
<path transform="translate(1458,493)" d="m0 0 5 1 14 8 10 8 9 8 9 12 5 11 1 6-9 3-19 7-9 7-6 8-5 10-3 7-2-2-7-16-9-10-10-6-24-8 3-11 9-14 14-14 15-10z" fill="#020403"/>
<path transform="translate(933,784)" d="m0 0 12 1 11 4 7 5v2h2v-12h15l1 1v34h25v-2l-5-2-6-4-4-5-1-9 3-7 5-4 6-2h27v16h-21v2l5 2 8 6 3 7-1 8-4 6-8 4h-48l-3-15-5-8-7-3v26h-16l-1-35z" fill="#07180D"/>
<path transform="translate(1031,1499)" d="m0 0h8l6 4 6 7 1 5 30-4h8l1 1v5l-16 1v7l10-4 6 5v8l-4 8-6 4-2 5-5-1-1-4-8-1-8-7-3-7v-4l9-1 3 9 4 2h8l3-3 1-2-8 2-6-3-2-9v-2l-14 2-1 1 2 26-1 1h-8l-2-18v-9l-22 1 3 2h8l6 4 2 4-1 6-4 3h-5l-3-3 1-6h-3l1 17-1 1h-7l-4-3-17-1-5-4-1-3v-9h8l1 9h16v-4l-4 3-7-1-4-5v-7l1-2h-13l-1-1v-5l5-1 29-1 6-1-1-1h-7l-5-5 2-4z" fill="#020806"/>
<path transform="translate(1455,602)" d="m0 0h9l16 3 7 1 4 5 2 6v8l-4 11-9 10-9 8-7 4h-9l-13-9-8-8-6-10-1-3v-13l4-8 8-2z" fill="#020504"/>
<path transform="translate(724,1245)" d="m0 0h2l-1 8v18l-5 7-2-4-2-7-3-2h-4l-1 3 7 1 2 5-3 3-7-1 5 9 2 2 4-1 19-14 2 1-1 5-16 12h-2l1 9 9 9 5-4 1-2-4 1-5-1v-6l4-6 5-3h7l2 1 5-5 4 2 1 3-5 5 1 5-4 13-5 7 1 4h4l12-13 4-5h2v6l-15 16 2 4 8 7v-4l-4-4v-6l3-3h7l2 4 5-5 3-4h2l1 9 9 6 2 3v6l-4 6-4 2h-3v-3l5-4v-5l-2-1-3 7-4 2-6 1 11 9v6l-6-4-16-13-5-4 6 8v6l-3 2-6-1-6-4-4-7v-10l1-5-23-23-4-9-5 4 1-8-1-4-2 1-9-17 5 11-1 6-3 3-4-1-1-3h3l-1-5-4-7v-6l2-3 1-9h2l5 10 5-8 2-1h6l3 2 3-12z" fill="#061D11"/>
<path transform="translate(722,1010)" d="m0 0h3l-2 5-5 7 2-1h9l4 5 1 5 12-3 4 2-1 2-10 3-10 6-5 1-6-1v-2l6-4 2-5-1-4-3-1 1 9-2 2h-5l-3-8-2 5-4 7 5 2 19 11v2l-6 1-17-10h-5l-4 5-4 11 7 3-3-6 1-3 2-1h9l6 4 2 3 1 6 5 1 1 1v5l-6 1-2-3-5 4-4 1h-14l-6-1-2 6 10 2 16 5v2l-3 2-9-2-16-5-1 4h-3l-1 13h3v-6l4-4h6l4 5-2 6 12 1-2 4-3 1-1 2-1 11-3 5-2 1h-9l-5-3 1-3 10 1 1-4-7 1-6-5-1-2-1 1-2 13-5 4 1-14 2-18-4 5-5-1-2-3v-9l4-6 6-5 9-1 3-9 9-23 6-8-4-2v-2h7l2-5 9-14-4 5-5 6-7 1-3-3 2-4 4 2 7-10 2-2h8l1-2z" fill="#061C11"/>
<path transform="translate(1182,1478)" d="m0 0 3 1 1 5-18 6 4 1 2-1h9l5 3 2 6-3 5-1 1h-6l-3-3v-4h-2l5 14v4l-7 2-1-1h-7l-9 3h-7l-5-5-2-5v-3l7-2 4 7 6-1 2-1-8-2-3-5v-6l-30 10-2 1h10l6-1 6 4v9l-4 6-9 8-2 1h-7l-3-3-6-18v-3l-5 1 4 15 2 8v4l-8 2-2-5-4-18v-4h-3l-1-6 21-6 36-12z" fill="#020705"/>
<path transform="translate(554,535)" d="m0 0 1 3-3 7h2l-2 5-1 4 4 8 12 6 5 2v1l-12-1-14-3-3-4 2 6 3 4 10 3 4 5 24 8 15 8 7 6 3 4v2l-4-2-11-8-15-8-15-5 4 10 16 5 12 6 3 2v2l-4 3-2-1 2-3-10-5-16-4-10-2 4 5 22 5 7 3-4 1-19-4 4 6 1 2-5-2-3-2 8 12-1 2-8-7-5-4 5 13 4 10 4 7-1 3-6-8h-5l-1 7-3 1-4-6-1-15-3-12-4-6-8-8-9-7-7-8-3-10 9 2 3 3 16 8 5 4 7 1-2-8-8-7-10-4-6-2 2-5h-4l1-4 5-7v-3l11-11-2-3z" fill="#020E0B"/>
<path transform="translate(1319,1030)" d="m0 0h9l6 5 1 9-4 9-7 9 1 5 6 4h7l6-3h2v-2l-5-2-1-4 2-3h6l3 3v7l-6 7-7 3-8 1 2 5 2 2v4l23-5h5l-2 5-16 4-1 3 4-1 1 3 4-1 3 3v7l-3 4-8 1-4-2 1 8 26-5h2l-2 4-5 3-3 12-6 7h-1l-2-8-3-3 4 8-2 5h-5l-2-2v-6l-3-2 2-5 3-3-12 1 2-4h2l-7-31-8-16-2-7-16-24 1-7 4 4 3 5 2-8 5-5z" fill="#121B18"/>
<path transform="translate(1344,1178)" d="m0 0h2l-1 8-2 9h7l-3-4v-4l5-2h7l5 3 3 3 1 6 5-1 3 3-2 5h-5-4l-6 4-4 1h-15l3 8 1 3 9 2 4-1-2-2 1-5 1-1h5l3 4-2 6-4 3-3 1h-7l-9-4-2-2-3 6v1l-1 4-7 14 3-3 3-5 2-1h8l4 3 2 6 10-4 6 1-2 2-10 5-7 8h-8v-2h-6l-8-4 1 9 3 5 5 3 6 1-2-3 1-5 1-1h5l2 3-1 7-6 3-10-1-6-4-4-5-2-10 12-24 2-6 3-17 6-25z" fill="#020B08"/>
<path transform="translate(671,1161)" d="m0 0 2 4 2 12 3-2v-8l4-4 7 1 2 3v5h6l4 4 1 8-4 7-10 7-6 3h-2l1-4 5-3-7-3-2-1 2 14 28-5-2 5-6 2-19 3v7l2 3 23-9h2l-1 5-8 4-9 4-2 2v3l2-4 6-1 2 2 2 7 1 5-3 3-5-1-3-1 2 7-2 4h-2l-2-5v-7l1-2-5-2-1-4 2-4-9 3 2-5 1-11-7 1-7-6-1-3v-8l4-10 4-3-1-19z" fill="#071E12"/>
<path transform="translate(1304,1280)" d="m0 0h3l-2 5-4 4h9l5 3 2 5-1 3-5 2 9 7-4 2-3-1h-7l-5 3h-9l2-15-13 14-11 9-1 2 5 5v-6l3-6h8l4 10 4 4v2l4 2-5 1-8-6-4-4 1 13-8-1-8-10-2-1v2l-5 2 4 8 11 16v2l-7-2-11-17-3-1-3 1 2 5 11 18v2l-5-2-3-2h-5l-3 4h-6l-3-5 2-5h2v-2l-10 1-8-3 4-4 21-13h3l-4-6 9 1 14-12 11-9 9-11 11-13z" fill="#050F0C"/>
<path transform="translate(839,1480)" d="m0 0 9 3 24 10 31 10 1 3-1 3h-3l-3 11-5 15-7-1-2-1-2-5-10-7-5-3 3-11 1-1h19l-22-7-3 9-7 16-7-2-1-3 3-7v-6l-5-5v7l-4 4-4 1-6-3-2-5 1-6 4-5 6-3h7l-12-6z" fill="#070D0B"/>
<path transform="translate(1572,535)" d="m0 0h2l-1 12-5 16-7 12-9 10-8 7-11 6-13 5-9 2h-31l-8-2 3-2 22-3 15-5 13-7 10-8 9-10 8-14 5-11 14-7z" fill="#020B08"/>
<path transform="translate(1346,535)" d="m0 0 11 6 6 3 5 12 6 10 9 11 10 8 10 6 12 5 19 4 13 2-3 2-5 1h-31l-18-5-15-8-13-12-9-14-5-13-3-16z" fill="#020B08"/>
<path transform="translate(1397,603)" d="m0 0 19 3 13 1-2 5-1 3v15l-7 3-22 5-17 2h-8l1-8 7-14 8-9z" fill="#020706"/>
<path transform="translate(1521,603)" d="m0 0 8 4 9 9 6 10 4 12v2h-9l-21-3-21-5-3-1v-14l-3-10 20-2z" fill="#020705"/>
<path transform="translate(1057,784)" d="m0 0h20v16l-20 1-4 2-2 4 1 7 3 3 2 1 20 1v16h-20l-10-3-7-6-5-10v-13l5-10 8-6z" fill="#07160C"/>
<path transform="translate(561,599)" d="m0 0 16 2 12 4 8 4v3l-1 1v22l-5 14-3 12h-4l-5-5-3-1-12-1v-4h-2l-1-7 2-3h5l6 8-2-6-4-6-1-5-5-12v-3l4 2 7 7h2l-8-12h3l4 2-3-4v-2l11 1 11 2-13-4-15-3-4-4z" fill="#FDFDFD"/>
<path transform="translate(905,1505)" d="m0 0 9 1 22 5 2 1v5l-3 2-4 17v5l7 6 3 6-5 6-2-4-3-4-4 2-3 2h-8l-5-3-1-7 5-6h3l-4-4-10-5-2-8 3-1h7l-2-7-6-4z" fill="#040A09"/>
<path transform="translate(1536,505)" d="m0 0 2 1 2 9v19l-4 4-14 6-9 2-5-13-7-10-3-5 8-5 18-5z" fill="#020705"/>
<path transform="translate(1382,506)" d="m0 0 10 2 20 6 8 4-1 4-7 10-4 9-2 5-9-2-16-7-2-5v-15l2-10z" fill="#020705"/>
<path transform="translate(582,539)" d="m0 0h2l3 5 8 6 18 4 7 8 11 5 4 1v2l-9 2v13l-2-3-5-7-6 1-6 6h-2l-1-5-5 5-2 6-2-1v-7l3-6h2l-11-11 1 8-4-2-5-6-1-3v-10l-7 1 6-9z" fill="#02100C"/>
<path transform="translate(1359,581)" d="m0 0 4 1 7 7 11 7 13 6v2l-8 6-1 1-14-1-24-5-16-5-3-3 9-7 16-7z" fill="#020A07"/>
<path transform="translate(1024,982)" d="m0 0h1v170h167v2h-167v171h-1v-171h-174l-1-2h175z" fill="#01241B"/>
<path transform="translate(1558,581)" d="m0 0 9 2 16 8 8 5v3l-18 6-25 5-13 1-9-7v-2l16-8 8-6z" fill="#020806"/>
<path transform="translate(596,650)" d="m0 0 2 1 3 16 2 6 3 1h10l11-5h29l4 5-3 7-5 6-2 1h-34l-4 2-4-1-3-8-3 2-5-7-3-11v-7z" fill="#FDFDFD"/>
<path transform="translate(775,959)" d="m0 0h7l-3 5 9 11 7 9v2h-5l-10-12-4-1 2 5 1 7-4 4-5 1-5-3-3-5v-5l-4 3-5 3 5 6 8 7 7 7-3 1-4-1h-8l-6 3-8-1 2-12v-3l-9 10h-6l2-4 11-11 5-6 7-4 14-12z" fill="#10261A"/>
<path transform="translate(1275,966)" d="m0 0 2 3-1 4-8 10-1 3h2l1-2 5-1 3-1 5 3 1 2v7l-5 5h-7l9 8 8 10 2 1-3-9v-7l7-4h9l5 3v6l-4 5-8 7-3 1 1 3v7l-12-12-8-10-10-8-12-10-1-7 6 3 11-13z" fill="#0B1411"/>
<path transform="translate(1319,1030)" d="m0 0h9l6 5 1 9-4 9-7 9 1 5 6 4h7l6-3h2v-2l-5-2-1-4 2-3h6l3 3v7l-6 7-7 3-8 1 2 8-3 3-8-16-2-7-16-24 1-7 4 4 3 5 2-8 5-5z" fill="#020C09"/>
<path transform="translate(554,535)" d="m0 0 1 3-3 7h2l-2 5-1 4 4 8 12 6 5 2v1l-12-1-14-3-3-4 2 6 3 4 10 3 4 5 24 8 15 8 7 6 3 4v2l-4-2-11-8-15-8-15-5 4 10 16 5 12 6 3 2v2l-4 3-2-1 2-3-10-5-16-4-10-2-1 2-1-4 1-3-2-7-8-7-10-4-6-2 2-5h-4l1-4 5-7v-3l11-11-2-3z" fill="#020F0B"/>
<path transform="translate(1228,1092)" d="m0 0h14l4 3v56l-5-1-1-55-4-1v57h-5l-1-45-1-11h-4l1 38v17l-5 1-1-31v-26l1-1z" fill="#062215"/>
<path transform="translate(842,961)" d="m0 0 10 1 6 4 3 3 1 3v9l-3 5-6 5-4 1h-8l-7-3-6-7v-10l4-6 6-4z" fill="#07160B"/>
<path transform="translate(1334,1228)" d="m0 0 1 3-8 15 3-3 3-5 2-1h8l4 3 2 6 10-4 6 1-2 2-10 5-7 8h-8v-2h-6l-8-4 1 9 3 5 5 3 6 1-2-3 1-5 1-1h5l2 3-1 7-6 3-10-1-6-4-4-5-2-10 11-22z" fill="#070F0D"/>
<path transform="translate(948,1514)" d="m0 0h8l7 3 1-1h8l3 2-1 5-2 1-3 23-1 3-9-1 2-21-3 7-7 5-4 1-7-5v-2l6-2-4-2-3-9 7-6z" fill="#020806"/>
<path transform="translate(895,1408)" d="m0 0 5 1 19 7 3 2 1-3h2v4l5 1 2-5 6-3 6 1 8 7 2 5-7-6-4-2-7 1-2 4 5 2v2h-5l-6 20-2 2-1-5 6-19-7-1-7 21h-2l-1-3 5-15v-5l-4-2-1 5-3 2-1 6-4 3h-4l6 11-1 3-8-11-6-5v-6l6 3h7l1-4-4 2h-5l-1-5v-2l-1-6 5 1 1-2-6-3z" fill="#183025"/>
<path transform="translate(724,1245)" d="m0 0h2l-1 8v18l-5 7-2-4-2-7-3-2h-4l-1 3 7 1 2 5-3 3-7-1 4 8-1 2-3 2-9-17 5 11-1 6-3 3-4-1-1-3h3l-1-5-4-7v-6l2-3 1-9h2l5 10 5-8 2-1h6l3 2 3-12z" fill="#061D11"/>
<path transform="translate(1402,491)" d="m0 0 10 2 12 5 10 7-2 4-9 8-5-1-13-5-5-2-1-6 2-10z" fill="#020906"/>
<path transform="translate(1507,491)" d="m0 0h3l2 6v13l-12 5-4 2-12-11-3-3 11-7 10-4z" fill="#020806"/>
<path transform="translate(1196,1212)" d="m0 0h7l5 3 3 5-1 8-5 5-6 2h-7l-7-6v-8l3-5z" fill="#020705"/>
<path transform="translate(513,589)" d="m0 0 5 5 12 9 5 7 7 16-1 2-3-1 5 8v2l-5-2-9-5-6-16-8-14-3-6z" fill="#020E0A"/>
<path transform="translate(951,1157)" d="m0 0h8l10 3 3 3-1 5-4 3-3 1h-17l-7-3-2-2 1-5 4-3z" fill="#020605"/>
<path transform="translate(551,523)" d="m0 0h8l1 2-17 5 4 2-3 2h-2v2l5 1-1 2-17 5-11 5-3-1 9-8h-7l6-7 16-8z" fill="#02120D"/>
<path transform="translate(535,544)" d="m0 0h5l-2 4-9 7-4 4v3h3l-4 6-2 6-5-2-8 10-2 2-1-4 3-7 2-11 3-1 1-4 10-8z" fill="#02140E"/>
<path transform="translate(1059,1426)" d="m0 0h7l5 4 2 5-1 6-5 5-7 1-5-4-2-4v-6l3-5z" fill="#062215"/>
<path transform="translate(1109,1408)" d="m0 0h6l6 5 1 2v7l-5 6-6 1-5-3-3-4-1-5 2-5z" fill="#062013"/>
<path transform="translate(1230,1093)" d="m0 0h7l-1 5v53h-5z" fill="#062114"/>
<path transform="translate(1237,1093)" d="m0 0h7l2 2v56l-5-1-1-55z" fill="#052F1F"/>
<path transform="translate(938,1412)" d="m0 0 6 1 8 7 2 5-7-6-4-2-7 1-2 4 5 2v2h-5l-6 20-2 2-1-5 6-19-7-1-7 21h-2l-1-3 5-15 2-7 2-4h2v4l5 1 2-5z" fill="#052618"/>
<path transform="translate(959,1425)" d="m0 0 4 4 1 3-4 1-5 20h-3l1-8 1-10-9 5-4-1v-2l2-1 1-3h-5v-4l3-3h9l5 6z" fill="#21372C"/>
<path transform="translate(1343,1143)" d="m0 0 3 4 4 6 5 2h7l2-2-2-1v-6l5-2 4 3v7l-5 5-11 2-7-2-6-5-2-4 1-5z" fill="#020B08"/>
<path transform="translate(637,534)" d="m0 0h5l1 3-4 4-1 3v10l3 6 3 4v2l-6-1-7-7-2-4v-10l3-6z" fill="#02130D"/>
<path transform="translate(967,1433)" d="m0 0h2l7 14 6 2 4-2 1-6-3-2-1 5-4 1-3-2v-6l2-2h7l5 5v9l-4 4-7 1-5-3-4-6z" fill="#062014"/>
<path transform="translate(684,485)" d="m0 0 3 3 4 10 1 6v18l-5-2-8-5 3-1-1-3 4 2v-8l-3-12 4 2z" fill="#FDFDFD"/>
<path transform="translate(639,573)" d="m0 0h16l-4 2-10 3-5 5 4-2h15l-3 2-10 3-4 1-2 5-3 2-1-1-2-17z" fill="#02150F"/>
<path transform="translate(523,490)" d="m0 0h3l1 11 12 1v2l-4 2-1 2 7 1v2l-4 2h-9l-6-5-1-3v-8z" fill="#020C09"/>
<path transform="translate(669,536)" d="m0 0 7 3 2 3 1 6-2 2-3 4-10 13h-1v-6l5-7v-7l-5-5 1-4 8 3 3 4-2-4-4-3z" fill="#021711"/>
<path transform="translate(644,652)" d="m0 0 2 2v6l13 2 3-9 2 1v6l-3 6-17-1h-10l-1-3 5-6z" fill="#FDFDFD"/>
<path transform="translate(713,587)" d="m0 0 3 1h-2l3 5 1 3-4-1-1 3-10 3-4 2-2 3h-2l-2 4h-4l-1-3 12-12 10-6z" fill="#081F18"/>
<path transform="translate(1030,1428)" d="m0 0 4 1 8 6 1 1v7l-2 3h-2l4 4 6 4-1 3-9-5-10-4-3-7 11 2 3-3-3-3-8-4z" fill="#062013"/>
<path transform="translate(1079,1417)" d="m0 0 7 1 7 3 2 4-1 6-2 3 9 2 3 2v2l-9-2-12-1-4-5 1-2h9l2-1v-4l-12-3-1-4z" fill="#062014"/>
<path transform="translate(586,530)" d="m0 0 4 4 2-3h2l5 8 7 6 8 5-3 1-13-4-11-8-1-6z" fill="#021B13"/>
<path transform="translate(581,521)" d="m0 0 6 2-3 2-6 3-1 3v11l-3 3h-2l-3-3-1-5 2-8 5-5z" fill="#03140D"/>
<path transform="translate(567,583)" d="m0 0 14 4 17 8 10 8 3 4v2l-4-2-11-8-15-8-15-5z" fill="#021F16"/>
<path transform="translate(1030,971)" d="m0 0h7l5 3-1 5-3 2h-9l-4-3 1-5z" fill="#061D11"/>
<path transform="translate(1062,1429)" d="m0 0 5 1 2 3-1 6-5 5-5-1-1-2 1-9z" fill="#FDFDFD"/>
<path transform="translate(1321,1035)" d="m0 0 6 2 2 2v8l-6 11-3 1-5-9h8l2-2v-6l-1-1h-6l-2 1 1-5z" fill="#FDFDFD"/>
<path transform="translate(686,617)" d="m0 0 2 1-4 2-2 10-5 4-8-5 1-4z" fill="#FDFDFD"/>
<path transform="translate(1110,1411)" d="m0 0h5l3 4-1 8-4 3-5-1-1-2v-8z" fill="#FDFDFD"/>
<path transform="translate(670,1184)" d="m0 0 2 4 2 12v7l-5-1-3-4-1-6 4-10z" fill="#FDFDFD"/>
<path transform="translate(1251,953)" d="m0 0h2l1 6-12 20h-2l-1-5z" fill="#020D0A"/>
<path transform="translate(796,953)" d="m0 0 5 5 10 16-1 3-5-2-12-20z" fill="#062013"/>
<path transform="translate(638,639)" d="m0 0 2 2-3 10-4 6h-2l-3-16z" fill="#FDFDFD"/>
<path transform="translate(575,556)" d="m0 0h1l2 7 12 12-7-1-6-3-7-8-1-5 3 2z" fill="#021912"/>
<path transform="translate(707,1059)" d="m0 0 4 2 1 1v6l-6 6-10 1-5-2 1-5 2-1 5 2h8l1-5z" fill="#FDFDFD"/>
<path transform="translate(1355,1189)" d="m0 0 4 2 1 1v8l-6 5-10 1-4-1 1-6 6 1h8l1-1v-6z" fill="#FDFDFD"/>
<path transform="translate(735,1293)" d="m0 0 6 1 3 3 1 8-5 10-4 1-2-5 5-4 2-4v-5l-9-2z" fill="#FDFDFD"/>
<path transform="translate(595,556)" d="m0 0 7 2 4 6 4 1 3-4 6 3-3 3-9 1-7-2-4-4z" fill="#FDFDFD"/>
<path transform="translate(614,578)" d="m0 0h4l3 6 2 7v5l-5-5-2-7-5 1-7 2v-2l6-4z" fill="#021C14"/>
<path transform="translate(668,637)" d="m0 0 6 1 1 3-4 11-3 3-2-13-1-4z" fill="#FDFDFD"/>
<path transform="translate(1e3 1446)" d="m0 0 7 1 1 6-3 4-6-1-1-2v-6z" fill="#45584F"/>
<path transform="translate(1e3 1432)" d="m0 0 6 1 1 7-3 3-5-1-2-2v-6z" fill="#3A4E44"/>
<path transform="translate(978,1435)" d="m0 0h7l5 5-3 1-3-2-1 5-4 1-3-2v-6z" fill="#062316"/>
<path transform="translate(601,527)" d="m0 0 1 4h3l3 10 1 3-5-2-7-6v-3h2l1-5z" fill="#021D14"/>
<path transform="translate(964,1429)" d="m0 0 24 1 5 1 1 3-21-1-7-1z" fill="#052619"/>
<path transform="translate(575,598)" d="m0 0 8 2 10 4 8 5v2l-4 3-2-1 2-3-10-5-16-4z" fill="#022B1E"/>
<path transform="translate(613,526)" d="m0 0 3 1-2 4-1 4v7l2 1v3h-3l-4-7-1-7 3-1 2-4z" fill="#021F16"/>
<path transform="translate(575,530)" d="m0 0 2 1v11l-3 3h-2l-3-3-1-5 5-1z" fill="#02291D"/>
<path transform="translate(693,1149)" d="m0 0h7l5 3 1 4h-4v-2h-2l-1 2h-6l-1-3z" fill="#061E12"/>
<path transform="translate(690,1176)" d="m0 0 4 1 2 3-1 6-5 6-1-2-1-4-1-2 3-2z" fill="#FDFDFD"/>
<path transform="translate(921,1514)" d="m0 0 5 1-1 11-1 4-5-2v-3l2-3z" fill="#FDFDFD"/>
<path transform="translate(678,1085)" d="m0 0 3 1-1 4-7 2-5 10h-1l1-9 4-6z" fill="#FDFDFD"/>
<path transform="translate(1243,1340)" d="m0 0 4 4 4 6v2l-4-1-6-5-4-1v-2z" fill="#FDFDFD"/>
<path transform="translate(745,1331)" d="m0 0 3 1 1 3-1 5 6 8 1 2-5-2-5-6-1-2z" fill="#FDFDFD"/>
<path transform="translate(1367,1194)" d="m0 0 1 3 5-1 3 3-2 5h-5l-3-2z" fill="#021610"/>
<path transform="translate(1295 1e3)" d="m0 0h9l-2 4-5 5h-2l-1-8z" fill="#FDFDFD"/>
<path transform="translate(718,1068)" d="m0 0h6l2 2v5l-6 1-2-5z" fill="#061D11"/>
<path transform="translate(632,531)" d="m0 0h6v2l-8 5-4 8h-1v-6l5-8z" fill="#012B1F"/>
<path transform="translate(1279,1312)" d="m0 0m-1 1m-1 1m-1 1 1 2-2 5-1 6-4-2-2-4z" fill="#FDFDFD"/>
<path transform="translate(1129,1516)" d="m0 0 1 2-5 6-3 1-2-8z" fill="#FDFDFD"/>
<path transform="translate(1035,1507)" d="m0 0 5 2 3 3-1 4-3 1-5-7-2-2z" fill="#FDFDFD"/>
<path transform="translate(773,1326)" d="m0 0h2l2 4-4 1v6h-7l2-4z" fill="#FDFDFD"/>
<path transform="translate(750,1283)" d="m0 0 4 2 1 3-2 3-6 1v-7z" fill="#07150B"/>
<path transform="translate(683,1108)" d="m0 0 13 2-1 4-7-1h-4z" fill="#FDFDFD"/>
<path transform="translate(1201,787)" d="m0 0h1v21l3 11v4l-5-2 2-1-2-11v-18z" fill="#006A4E"/>
<path transform="translate(682,538)" d="m0 0h2v7l-1 3 3 1-4 5-2-1 3-4-5 3 2-9h2z" fill="#022B1E"/>
<path transform="translate(684,561)" d="m0 0 1 4-4 5h-8l-1-3 3-1 4 3 2-6z" fill="#FDFDFD"/>
<path transform="translate(709,1264)" d="m0 0 6 1 3 4v5l-3-3v-2l-7-1z" fill="#FDFDFD"/>
<path transform="translate(669,536)" d="m0 0 7 3 2 3 1 6-2 2h-2v-7l-6-5z" fill="#022B1F"/>
<path transform="translate(1317,878)" d="m0 0 1 4v24l-4-1 2-4-1-13z" fill="#006A4E"/>
<path transform="translate(1221,1201)" d="m0 0 3 3v4l-2 1h-7l2-4 4-1z" fill="#0D4032"/>
<path transform="translate(1432,1175)" d="m0 0h1l-1 19h-4l-1-4 3 1 1-14z" fill="#006A4E"/>
<path transform="translate(1432,1249)" d="m0 0 1 3-1 5 9-7 2 1-8 7-5 2 1-9z" fill="#006248"/>
<path transform="translate(753,992)" d="m0 0 4 2 4 4-9 1z" fill="#FDFDFD"/>
<path transform="translate(929,1435)" d="m0 0h1l-1 8-2 5-2-1 1-7 1-4z" fill="#062719"/>
<path transform="translate(1300,1300)" d="m0 0 4 2 3 3-8 2z" fill="#FDFDFD"/>
<path transform="translate(643,581)" d="m0 0h12l-3 2-10 2v-3z" fill="#031D14"/>
<path transform="translate(554,535)" d="m0 0 1 3-2 5-6-1 4-5z" fill="#022419"/>
<path transform="translate(982,1430)" d="m0 0 11 1 1 3-11-1z" fill="#053222"/>
<path transform="translate(1338,1240)" d="m0 0 3 1 1 3v8l-2 2-1-9-2-4z" fill="#FDFDFD"/>
<path transform="translate(680,1178)" d="m0 0 3 1v4l3 1-4 2-3-4z" fill="#FDFDFD"/>
<path transform="translate(1165,1499)" d="m0 0 2 1 2 5v4h-6l2-3z" fill="#F3F7F6"/>
<path transform="translate(954,1444)" d="m0 0h2l-1 9h-3l1-8z" fill="#042C1E"/>
<path transform="translate(1366,938)" d="m0 0 2 1-2 14-2 1-4-3 1-2 3 2z" fill="#006A4E"/>
<path transform="translate(567,583)" d="m0 0 8 2 1 4-10-3z" fill="#032A1D"/>
<path transform="translate(562,566)" d="m0 0 10 4v1l-12-1z" fill="#022F22"/>
</svg>
